<svg xmlns="http://www.w3.org/2000/svg" width="11.28" height="9.84" viewBox="0 0 11.28 9.84">
  <path id="reset" d="M-.744-9.12A4.755,4.755,0,0,1,2.7-7.728,4.717,4.717,0,0,1,4.176-4.344H5.64L3.432-1.872,1.224-4.344H2.952a3.519,3.519,0,0,0-1.128-2.52A3.6,3.6,0,0,0-.756-7.9a3.521,3.521,0,0,0-2.58,1.08,3.549,3.549,0,0,0-1.08,2.6,3.549,3.549,0,0,0,1.08,2.6A3.535,3.535,0,0,0-.744-.528a3.48,3.48,0,0,0,2.184-.72l.84.912A4.706,4.706,0,0,1-.744.72,4.713,4.713,0,0,1-4.2-.72,4.741,4.741,0,0,1-5.64-4.2,4.741,4.741,0,0,1-4.2-7.68,4.713,4.713,0,0,1-.744-9.12Z" transform="translate(5.64 9.12)" fill="#2c4344"/>
</svg>
