<svg xmlns="http://www.w3.org/2000/svg" width="8.624" height="8.912" viewBox="0 0 8.624 8.912">
  <path id="_0xf100" data-name="0xf100" d="M1.032-1.312a.29.29,0,0,1-.1.208L.488-.656A.262.262,0,0,1,.3-.576a.319.319,0,0,1-.208-.08l-4.16-4.176a.242.242,0,0,1-.1-.192.29.29,0,0,1,.1-.208l4.16-4.16a.258.258,0,0,1,.208-.1.215.215,0,0,1,.192.1l.448.448a.258.258,0,0,1,.1.208.215.215,0,0,1-.1.192l-3.5,3.52,3.5,3.5A.29.29,0,0,1,1.032-1.312Zm3.424,0a.319.319,0,0,1-.08.208l-.448.448a.319.319,0,0,1-.208.08.319.319,0,0,1-.208-.08L-.648-4.832a.242.242,0,0,1-.1-.192.29.29,0,0,1,.1-.208l4.16-4.16a.29.29,0,0,1,.208-.1.29.29,0,0,1,.208.1l.448.448a.281.281,0,0,1,.08.208.231.231,0,0,1-.08.192L.856-5.024l3.52,3.5A.319.319,0,0,1,4.456-1.312Z" transform="translate(4.168 9.488)" fill="#666"/>
</svg>
