<svg xmlns="http://www.w3.org/2000/svg" width="10" height="10" viewBox="0 0 10 10">
  <path id="_0xf24d" data-name="0xf24d" d="M9.29.61V-5.46a.161.161,0,0,0-.06-.13.188.188,0,0,0-.12-.05H3.04a.176.176,0,0,0-.13.05.176.176,0,0,0-.05.13V.61a.164.164,0,0,0,.05.12.216.216,0,0,0,.13.06H9.11A.151.151,0,0,0,9.23.73.255.255,0,0,0,9.29.61ZM10-5.46V.61a.858.858,0,0,1-.26.63.858.858,0,0,1-.63.26H3.04a.858.858,0,0,1-.63-.26A.894.894,0,0,1,2.14.61V-5.46a.875.875,0,0,1,.27-.64.829.829,0,0,1,.63-.26H9.11a.858.858,0,0,1,.63.26A.87.87,0,0,1,10-5.46ZM7.86-7.61v.9H7.14v-.9a.164.164,0,0,0-.05-.12.216.216,0,0,0-.13-.06H.89a.151.151,0,0,0-.12.06.255.255,0,0,0-.06.12v6.07a.161.161,0,0,0,.06.13.188.188,0,0,0,.12.05h.9v.72H.89A.863.863,0,0,1,.26-.91.829.829,0,0,1,0-1.54V-7.61a.858.858,0,0,1,.26-.63A.858.858,0,0,1,.89-8.5H6.96a.891.891,0,0,1,.64.26A.81.81,0,0,1,7.86-7.61Z" transform="translate(0 8.5)"/>
</svg>
