<svg xmlns="http://www.w3.org/2000/svg" width="71.456" height="67" viewBox="0 0 71.456 67">
  <g id="icon_시안" transform="translate(-726 -535)">
    <rect id="사각형_3496" data-name="사각형 3496" width="56" height="64" rx="2" transform="translate(726 535)" fill="#fff"/>
    <path id="사각형_3496-2" data-name="사각형 3496" d="M2,2V62H54V2H2M2,0H54a2,2,0,0,1,2,2V62a2,2,0,0,1-2,2H2a2,2,0,0,1-2-2V2A2,2,0,0,1,2,0Z" transform="translate(726 535)" fill="#101010"/>
    <rect id="사각형_3497" data-name="사각형 3497" width="56" height="2" transform="translate(726 543)" fill="#101010"/>
    <path id="사각형_3498" data-name="사각형 3498" d="M2,2V22H42V2H2M2,0H42a2,2,0,0,1,2,2V22a2,2,0,0,1-2,2H2a2,2,0,0,1-2-2V2A2,2,0,0,1,2,0Z" transform="translate(732 549)" fill="#101010"/>
    <path id="사각형_3499" data-name="사각형 3499" d="M2,2V15H28V2H2M2,0H28a2,2,0,0,1,2,2V15a2,2,0,0,1-2,2H2a2,2,0,0,1-2-2V2A2,2,0,0,1,2,0Z" transform="translate(732 576)" fill="#101010"/>
    <path id="사각형_3500" data-name="사각형 3500" d="M2,2V15H9V2H2M2,0H9a2,2,0,0,1,2,2V15a2,2,0,0,1-2,2H2a2,2,0,0,1-2-2V2A2,2,0,0,1,2,0Z" transform="translate(764 576)" fill="#101010"/>
    <g id="패스_458" data-name="패스 458" transform="translate(778.944 611.813)" fill="#fff">
      <path d="M -5.944145202636719 -10.81250095367432 C -7.449145317077637 -10.81250095367432 -8.829874992370605 -11.149001121521 -10.0479850769043 -11.81265068054199 C -11.25748538970947 -12.47159099578857 -12.22212505340576 -13.38472080230713 -12.91511535644531 -14.52666091918945 C -13.61431503295898 -15.67880058288574 -13.95419502258301 -16.92929077148438 -13.95419502258301 -18.34958076477051 C -13.95419502258301 -21.03958129882812 -15.25795555114746 -22.37214088439941 -16.35166549682617 -23.01633071899414 C -17.71918487548828 -23.83079147338867 -19.78961563110352 -24.22792053222656 -22.67709541320801 -24.22792053222656 C -24.85899543762207 -24.2279109954834 -26.49528503417969 -24.90969085693359 -27.6794548034668 -26.31221008300781 L -27.68114471435547 -26.31420135498047 L -27.68283462524414 -26.31618118286133 C -28.822265625 -27.65151023864746 -29.40000534057617 -29.48475074768066 -29.40000534057617 -31.76500129699707 C -29.40000534057617 -32.85090255737305 -28.97701454162598 -34.14404296875 -28.14275741577148 -35.60860061645508 C -27.20853996276855 -37.22574996948242 -25.91260147094727 -38.76300811767578 -24.29120445251465 -40.17739486694336 C -22.46316719055176 -41.72286224365234 -20.37681007385254 -42.96158981323242 -18.0898551940918 -43.85930252075195 C -15.47462558746338 -44.88145065307617 -12.68694496154785 -45.40000152587891 -9.805595397949219 -45.40000152587891 C -4.43750524520874 -45.40000152587891 0.2461448013782501 -44.80710220336914 4.11524486541748 -43.63777923583984 C 8.337164878845215 -42.36637115478516 11.6085147857666 -40.40158081054688 13.83936500549316 -37.79769897460938 C 15.05518436431885 -36.38801956176758 15.9786548614502 -34.76420974731445 16.58625411987305 -32.96890258789062 C 17.20034408569336 -31.15443992614746 17.51171493530273 -29.10809135437012 17.51171493530273 -26.88667106628418 C 17.51171493530273 -24.14970779418945 16.68898582458496 -21.56872749328613 15.0664176940918 -19.21537780761719 C 13.29353618621826 -16.7129077911377 10.73131084442139 -14.71073722839355 7.45066499710083 -13.26423072814941 C 3.720764875411987 -11.63794040679932 -0.7871652245521545 -10.81250095367432 -5.944145202636719 -10.81250095367432 Z" stroke="none"/>
      <path d="M -9.805593490600586 -44.40000152587891 C -12.56187343597412 -44.40000152587891 -15.22708320617676 -43.904541015625 -17.72445297241211 -42.92844009399414 C -19.90674209594727 -42.07181549072266 -21.89674377441406 -40.89109039306641 -23.6395149230957 -39.41886138916016 C -25.174072265625 -38.07931518554688 -26.39715194702148 -36.63026809692383 -27.27498817443848 -35.11163711547852 C -28.021484375 -33.80068206787109 -28.40000343322754 -32.67472076416016 -28.40000343322754 -31.76500129699707 C -28.40000343322754 -29.70071029663086 -27.91658401489258 -28.13071060180664 -26.92213439941406 -26.96529006958008 L -26.91538238525391 -26.95733070373535 C -25.93282318115234 -25.79361152648926 -24.54647445678711 -25.2279109954834 -22.67710304260254 -25.22792053222656 C -19.60536193847656 -25.22792053222656 -17.36785507202148 -24.78492736816406 -15.83707046508789 -23.8737907409668 C -14.52011489868164 -23.09577178955078 -12.95419311523438 -21.50639343261719 -12.95419311523438 -18.34957885742188 C -12.95419311523438 -17.11750030517578 -12.66177368164062 -16.03671264648438 -12.0602331161499 -15.04547119140625 C -11.45156288146973 -14.0424919128418 -10.63685321807861 -13.27226257324219 -9.569553375244141 -12.69078063964844 C -8.484813690185547 -12.09979248046875 -7.298933506011963 -11.8125 -5.944143295288086 -11.8125 C -0.9273710250854492 -11.8125 3.444640159606934 -12.60927963256836 7.050701141357422 -14.18077850341797 C 10.15946197509766 -15.55209350585938 12.58024215698242 -17.43837738037109 14.24640464782715 -19.78776550292969 C 15.77062797546387 -22.00021362304688 16.51171684265137 -24.32254219055176 16.51171684265137 -26.88667106628418 C 16.51171684265137 -28.99884033203125 16.21810722351074 -30.93734169006348 15.63903617858887 -32.64832305908203 C 15.07293701171875 -34.32101058959961 14.21338653564453 -35.83293151855469 13.08426666259766 -37.14208221435547 L 13.0799674987793 -37.14709091186523 C 10.97556686401367 -39.60336303710938 7.862707138061523 -41.46488952636719 3.825946807861328 -42.6805419921875 C 0.05073642730712891 -43.82149124145508 -4.535573482513428 -44.40000152587891 -9.805593490600586 -44.40000152587891 M -9.805593490600586 -46.40000152587891 C -4.313753128051758 -46.40000152587891 0.4229564666748047 -45.79833984375 4.404546737670898 -44.59502029418945 C 8.832345962524414 -43.26161193847656 12.23041725158691 -41.21269989013672 14.59877586364746 -38.44831848144531 C 17.20740699768066 -35.42375183105469 18.51171684265137 -31.56986999511719 18.51171684265137 -26.88667106628418 C 18.51171684265137 -23.92713928222656 17.63644599914551 -21.17901992797852 15.88592720031738 -18.64228057861328 C 13.99810600280762 -15.97546005249023 11.32083702087402 -13.87778091430664 7.854106903076172 -12.3492317199707 C 3.975496292114258 -10.6580810546875 -0.6239233016967773 -9.8125 -5.944143295288086 -9.8125 C -7.626023292541504 -9.8125 -9.153443336486816 -10.18650054931641 -10.52640342712402 -10.93452072143555 C -11.89936351776123 -11.68252944946289 -12.98056316375732 -12.70698165893555 -13.77002334594727 -14.00786972045898 C -14.55947303771973 -15.30875015258789 -14.95419311523438 -16.75598907470703 -14.95419311523438 -18.34957885742188 C -14.95419311523438 -20.13830947875977 -15.58919334411621 -21.40666961669922 -16.85918426513672 -22.15468978881836 C -18.06052398681641 -22.87017059326172 -19.99983215332031 -23.22792053222656 -22.67710304260254 -23.22792053222656 C -25.14843368530273 -23.22790908813477 -27.07057189941406 -24.04096984863281 -28.44353294372559 -25.66707992553711 C -29.74784278869629 -27.19563102722168 -30.40000343322754 -29.228271484375 -30.40000343322754 -31.76500129699707 C -30.40000343322754 -33.03337097167969 -29.9366340637207 -34.48060989379883 -29.00988388061523 -36.10671997070312 C -28.01448249816895 -37.83039093017578 -26.65868377685547 -39.44023895263672 -24.94248199462891 -40.93627166748047 C -23.02034378051758 -42.56238174438477 -20.85792350769043 -43.84701156616211 -18.45524215698242 -44.7901496887207 C -15.70932388305664 -45.8633918762207 -12.8261137008667 -46.40000152587891 -9.805593490600586 -46.40000152587891 Z" stroke="none" fill="#101010"/>
    </g>
    <path id="패스_459" data-name="패스 459" d="M4.25,0C6.6,0,7.557,2.125,8.5,4.25s.631,3.27-.477,4.25c-.51.474-1.767,1.063-3.773,0S0,6.6,0,4.25A4.25,4.25,0,0,1,4.25,0Z" transform="translate(760.8 571.131)" fill="#ecc424"/>
    <path id="패스_460" data-name="패스 460" d="M5.363,0C6.948,0,6.912,1.837,8.149,3.236c.6.644,2.12.49,2.577,2.127s.455,3.184-.747,4.422c-.694.748-3.091.941-4.616.941A5.363,5.363,0,0,1,5.363,0Z" transform="matrix(0.899, -0.438, 0.438, 0.899, 772.859, 574.737)" fill="#2bc27c"/>
    <path id="패스_461" data-name="패스 461" d="M4.25,0C5.243,0,7.438-.038,8.5,1.024s0,1.871,0,3.226A4.25,4.25,0,0,1,4.25,8.5c-.866,0-4.411-.1-5.336-.723C-1.981,7.2-1.334,6.194,0,4.25S1.9,0,4.25,0Z" transform="translate(779.656 585.412)" fill="#c22b2b"/>
    <circle id="타원_9" data-name="타원 9" cx="1.5" cy="1.5" r="1.5" transform="translate(773 538.5)" fill="#101010"/>
    <circle id="타원_10" data-name="타원 10" cx="1.5" cy="1.5" r="1.5" transform="translate(768 538.5)" fill="#101010"/>
    <circle id="타원_11" data-name="타원 11" cx="1.5" cy="1.5" r="1.5" transform="translate(763 538.5)" fill="#101010"/>
  </g>
</svg>
