<svg xmlns="http://www.w3.org/2000/svg" width="13.005" height="12.354" viewBox="0 0 13.005 12.354">
  <path id="_0xe8d1" data-name="0xe8d1" d="M4.628-6.734h-1.3L1.716-8.684l-2.782,1.95h-2.34a1.579,1.579,0,0,0-1.17.507A1.642,1.642,0,0,0-5.07-5.044v2.08l-1.4-3.848a.509.509,0,0,1,.286-.676l8.84-3.224a.486.486,0,0,1,.65.312Zm1.378,1.17a.458.458,0,0,1,.351.156.522.522,0,0,1,.143.364V1.092a.522.522,0,0,1-.143.364.458.458,0,0,1-.351.156H-3.406a.458.458,0,0,1-.351-.156A.522.522,0,0,1-3.9,1.092V-5.044a.522.522,0,0,1,.143-.364.458.458,0,0,1,.351-.156ZM5.278.312V-1.794l-.936-2.08-2.158.78L.494-1.378-1.3-3.588-2.5-.806V.312Z" transform="translate(6.505 10.742)"/>
</svg>
