<svg xmlns="http://www.w3.org/2000/svg" width="16" height="13.422" viewBox="0 0 16 13.422">
  <path id="_0xed26" data-name="0xed26" d="M0-5.986a3.342,3.342,0,0,1,1.024-1.76A10.462,10.462,0,0,1,3.84-9.794,9.649,9.649,0,0,1,8-10.77q.464,0,.944.032L10.128-12.8a.55.55,0,0,1,.368-.288.284.284,0,0,1,.128.032l.816.512q.272.112.032.528L10.56-10.4,9.808-9.138,9.152-7.986l-2.3,4L6.192-2.834,5.44-1.554,4.528.046q-.24.4-.5.24l-.848-.5q-.24-.128,0-.528l.784-1.376L3.84-2.178A10.565,10.565,0,0,1,1.024-4.242,3.287,3.287,0,0,1,0-5.986Zm4.224,0a3.327,3.327,0,0,0,.752,2.128L5.744-5.2A2.216,2.216,0,0,1,5.6-5.986a2.186,2.186,0,0,1,.544-1.456,2.325,2.325,0,0,1,1.36-.8l.784-1.344H8A3.725,3.725,0,0,0,5.328-8.53,3.394,3.394,0,0,0,4.224-5.986Zm2.832,4.72L7.712-2.4H8a3.756,3.756,0,0,0,2.672-1.04,3.361,3.361,0,0,0,1.1-2.544,3.327,3.327,0,0,0-.752-2.128l1.008-1.744a.251.251,0,0,0,.064.048.142.142,0,0,0,.064.016,10.293,10.293,0,0,1,2.816,2.048A3.35,3.35,0,0,1,16-5.986a3.271,3.271,0,0,1-1.024,1.744A10.758,10.758,0,0,1,12.16-2.178,9.649,9.649,0,0,1,8-1.2,8.228,8.228,0,0,1,7.056-1.266ZM8.5-3.746l1.76-3.024a2.306,2.306,0,0,1,.144.784,2.126,2.126,0,0,1-.544,1.44A2.441,2.441,0,0,1,8.5-3.746Z" transform="translate(0 13.09)"/>
</svg>
