<svg xmlns="http://www.w3.org/2000/svg" width="13.33" height="10" viewBox="0 0 13.33 10">
  <path id="패스_36" data-name="패스 36" d="M12.62-8.5H4.52v1.19H2.71a.351.351,0,0,0-.28.13L.08-4.36A.358.358,0,0,0,0-4.13V-.29a.347.347,0,0,0,.105.255A.347.347,0,0,0,.36.07H.95a1.418,1.418,0,0,0,.19.72,1.39,1.39,0,0,0,.52.52,1.459,1.459,0,0,0,1.44,0A1.39,1.39,0,0,0,3.62.79,1.418,1.418,0,0,0,3.81.07H9.52a1.418,1.418,0,0,0,.19.72,1.39,1.39,0,0,0,.52.52,1.459,1.459,0,0,0,1.44,0,1.39,1.39,0,0,0,.52-.52,1.418,1.418,0,0,0,.19-.72h.6a.331.331,0,0,0,.25-.105.356.356,0,0,0,.1-.255V-8.5ZM2.38.79a.666.666,0,0,1-.5-.21.7.7,0,0,1-.2-.505.68.68,0,0,1,.2-.5.68.68,0,0,1,.5-.2.7.7,0,0,1,.5.2.672.672,0,0,1,.21.5A.689.689,0,0,1,2.89.58.694.694,0,0,1,2.38.79Zm8.57,0a.667.667,0,0,1-.5-.21.7.7,0,0,1-.2-.505.68.68,0,0,1,.2-.5.68.68,0,0,1,.5-.2.7.7,0,0,1,.5.2.672.672,0,0,1,.21.5.689.689,0,0,1-.21.505A.694.694,0,0,1,10.95.79ZM12.62-.64h-.43a1.39,1.39,0,0,0-.52-.52,1.44,1.44,0,0,0-1.43,0,1.39,1.39,0,0,0-.52.52H3.62a1.39,1.39,0,0,0-.52-.52,1.44,1.44,0,0,0-1.43,0,1.39,1.39,0,0,0-.52.52H.71V-4.01L2.88-6.6H4.52v4.53h8.1Zm0-2.5v.35H5.24v-5h7.38Z" transform="translate(0 8.5)" fill="#555"/>
</svg>
