<svg xmlns="http://www.w3.org/2000/svg" width="14" height="12.579" viewBox="0 0 14 12.579">
  <path id="_0xee4e" data-name="0xee4e" d="M-1.582-12.228a.9.9,0,0,1-.34.755,1.3,1.3,0,0,1-.855.252h-11.61a1.331,1.331,0,0,1-.843-.264.919.919,0,0,1-.352-.742,1.522,1.522,0,0,1,.226-.767l5.8-10.113a1.174,1.174,0,0,1,.981-.692,1.121,1.121,0,0,1,.956.692l5.811,10.126A1.551,1.551,0,0,1-1.582-12.228Zm-6.126-6.428v-1.836H-9.456v1.836a1.992,1.992,0,0,0,.025.327q.025.151.075.352a2.305,2.305,0,0,1,.063.34l.327,2.038h.742l.34-2.038.075-.327q.05-.2.075-.365A2.148,2.148,0,0,0-7.708-18.655Zm0,4.868a.838.838,0,0,0-.252-.616.838.838,0,0,0-.616-.252.838.838,0,0,0-.616.252.884.884,0,0,0-.264.616.763.763,0,0,0,.264.616.937.937,0,0,0,.6.264.859.859,0,0,0,.629-.264A.8.8,0,0,0-7.708-13.787Z" transform="translate(15.582 23.8)" fill="#101010"/>
</svg>
