<svg xmlns="http://www.w3.org/2000/svg" width="13.111" height="13.118" viewBox="0 0 13.111 13.118">
  <path id="패스_42" data-name="패스 42" d="M0-4.9A6.445,6.445,0,0,1,.518-7.448a6.406,6.406,0,0,1,1.4-2.086A6.939,6.939,0,0,1,4-10.934a6.109,6.109,0,0,1,2.562-.518,6.345,6.345,0,0,1,2.534.518,6.782,6.782,0,0,1,2.1,1.4,6.312,6.312,0,0,1,1.4,2.086,6.606,6.606,0,0,1,.511,2.541A6.375,6.375,0,0,1,12.6-2.352a6.57,6.57,0,0,1-1.4,2.1,6.57,6.57,0,0,1-2.1,1.4,6.445,6.445,0,0,1-2.548.518A6.445,6.445,0,0,1,4,1.148a6.406,6.406,0,0,1-2.086-1.4,6.891,6.891,0,0,1-1.4-2.1A6.134,6.134,0,0,1,0-4.9ZM5.418-7.644,5.8-4.228a.744.744,0,0,0,.238.49.909.909,0,0,0,.5.238.779.779,0,0,0,.6-.168.76.76,0,0,0,.294-.56l.378-3.416v-.238a1.212,1.212,0,0,0-.434-.812A1.115,1.115,0,0,0,6.5-8.96a1.173,1.173,0,0,0-.812.434A1.189,1.189,0,0,0,5.418-7.644ZM5.586-1.89a1,1,0,0,0,.308.728.931.931,0,0,0,.714.294,1.143,1.143,0,0,0,.728-.294.88.88,0,0,0,.308-.728,1.019,1.019,0,0,0-.3-.728,1.009,1.009,0,0,0-.735-.28.938.938,0,0,0-.714.28A1,1,0,0,0,5.586-1.89Z" transform="translate(0 11.452)"/>
</svg>
