<svg xmlns="http://www.w3.org/2000/svg" width="11.004" height="12.012" viewBox="0 0 11.004 12.012">
  <path id="패스_75" data-name="패스 75" d="M-1.491-6.146v4.494a.246.246,0,0,1-.07.182.246.246,0,0,1-.182.07h-.5a.246.246,0,0,1-.182-.07.246.246,0,0,1-.07-.182V-6.146a.246.246,0,0,1,.07-.182.246.246,0,0,1,.182-.07h.5a.246.246,0,0,1,.182.07A.246.246,0,0,1-1.491-6.146Zm2,0v4.494a.246.246,0,0,1-.07.182.246.246,0,0,1-.182.07h-.5a.246.246,0,0,1-.182-.07A.246.246,0,0,1-.5-1.652V-6.146a.246.246,0,0,1,.07-.182A.246.246,0,0,1-.245-6.4h.5a.246.246,0,0,1,.182.07A.246.246,0,0,1,.511-6.146Zm1.988,0v4.494a.246.246,0,0,1-.07.182.229.229,0,0,1-.168.07h-.5a.246.246,0,0,1-.182-.07.246.246,0,0,1-.07-.182V-6.146a.246.246,0,0,1,.07-.182.246.246,0,0,1,.182-.07h.5a.229.229,0,0,1,.168.07A.246.246,0,0,1,2.5-6.146ZM3.507-.49V-7.9h-7V-.49a.822.822,0,0,0,.056.308.85.85,0,0,0,.112.21q.056.07.084.07h6.5q.028,0,.084-.07a.85.85,0,0,0,.112-.21A.822.822,0,0,0,3.507-.49ZM-1.743-8.9h3.5l-.378-.91A.217.217,0,0,0,1.253-9.9H-1.225a.221.221,0,0,0-.14.084Zm7.252.252v.5a.246.246,0,0,1-.07.182.246.246,0,0,1-.182.07H4.5V-.49A1.791,1.791,0,0,1,4.137.63a1.08,1.08,0,0,1-.882.476h-6.5A1.09,1.09,0,0,1-4.123.644,1.8,1.8,0,0,1-4.5-.462V-7.9h-.742a.246.246,0,0,1-.182-.07.246.246,0,0,1-.07-.182v-.5a.246.246,0,0,1,.07-.182.246.246,0,0,1,.182-.07h2.408l.546-1.3a1.088,1.088,0,0,1,.434-.49,1.248,1.248,0,0,1,.616-.21H1.253a1.044,1.044,0,0,1,.616.21,1.222,1.222,0,0,1,.42.49l.546,1.3H5.257a.246.246,0,0,1,.182.07A.246.246,0,0,1,5.509-8.652Z" transform="translate(5.495 10.906)"/>
</svg>
