<svg xmlns="http://www.w3.org/2000/svg" width="13.119" height="13.119" viewBox="0 0 13.119 13.119">
  <path id="_0xf529" data-name="0xf529" d="M0-4.9a1.023,1.023,0,0,1,.308-.714.972.972,0,0,1,.714-.294H2.814a1,1,0,0,1,.714.294.906.906,0,0,1,.294.714,1.051,1.051,0,0,1-.294.714.943.943,0,0,1-.714.294H1.022a1.019,1.019,0,0,1-.728-.294A.906.906,0,0,1,0-4.9ZM1.624-.98a.935.935,0,0,1,.308-.7L3.206-2.954a.972.972,0,0,1,.714-.294.95.95,0,0,1,.7.28,1.019,1.019,0,0,1,.294.728.927.927,0,0,1-.294.7L3.346-.266a.972.972,0,0,1-.714.294.972.972,0,0,1-.714-.294A.972.972,0,0,1,1.624-.98Zm0-7.84a.972.972,0,0,1,.294-.714.972.972,0,0,1,.714-.294.972.972,0,0,1,.714.294L4.62-8.26a.972.972,0,0,1,.294.714.972.972,0,0,1-.294.714.956.956,0,0,1-.7.294,1,1,0,0,1-.714-.294L1.918-8.106A.972.972,0,0,1,1.624-8.82ZM5.558.658V-1.148a.972.972,0,0,1,.294-.714.972.972,0,0,1,.714-.294.972.972,0,0,1,.714.294.972.972,0,0,1,.294.714V.658a1,1,0,0,1-.294.714.906.906,0,0,1-.714.294,1.051,1.051,0,0,1-.714-.294A.943.943,0,0,1,5.558.658Zm0-9.31v-1.792a.972.972,0,0,1,.294-.714.972.972,0,0,1,.714-.294.972.972,0,0,1,.714.294.972.972,0,0,1,.294.714v1.792a.972.972,0,0,1-.294.714,1,1,0,0,1-.714.3.948.948,0,0,1-.714-.287A.989.989,0,0,1,5.558-8.652ZM8.218-2.24a1,1,0,0,1,.294-.721.945.945,0,0,1,.7-.3,1,1,0,0,1,.714.294L11.2-1.694a.972.972,0,0,1,.294.714.972.972,0,0,1-.294.714.972.972,0,0,1-.714.294.972.972,0,0,1-.714-.294L8.512-1.54A.956.956,0,0,1,8.218-2.24Zm0-5.306a.972.972,0,0,1,.294-.714l1.26-1.274a.972.972,0,0,1,.714-.294.972.972,0,0,1,.714.294.972.972,0,0,1,.294.714.972.972,0,0,1-.294.714L9.926-6.832a.972.972,0,0,1-.714.294.927.927,0,0,1-.7-.294A1.051,1.051,0,0,1,8.218-7.546ZM9.3-4.9A.95.95,0,0,1,9.6-5.614a1,1,0,0,1,.714-.294H12.11a.972.972,0,0,1,.714.294.972.972,0,0,1,.294.714.972.972,0,0,1-.294.714.972.972,0,0,1-.714.294H10.318a1.019,1.019,0,0,1-.728-.294A.906.906,0,0,1,9.3-4.9Z" transform="translate(0.001 11.452)"/>
</svg>
