<svg xmlns="http://www.w3.org/2000/svg" width="12.516" height="12" viewBox="0 0 12.516 12">
  <path id="_0xff36" data-name="0xff36" d="M10-10.2H2.484L0-6.2V1.788A.011.011,0,0,0,.012,1.8h12.5v-8Zm-2.5,9H5.04a1.041,1.041,0,0,1-.678-.24.964.964,0,0,1-.354-.612,1,1,0,0,1,.09-.564,1.05,1.05,0,0,1,.366-.426A.943.943,0,0,1,5-3.2h2.46a1.041,1.041,0,0,1,.678.24.915.915,0,0,1,.342.612.936.936,0,0,1-.078.564,1.05,1.05,0,0,1-.366.426A.943.943,0,0,1,7.5-1.2ZM.636-6.216,2.748-9.7h7.02l2.112,3.48a.011.011,0,0,1-.012.012L.636-6.216q0,.012-.006.006S.628-6.216.636-6.216Z" transform="translate(0 10.2)"/>
</svg>
