<svg xmlns="http://www.w3.org/2000/svg" width="12.739" height="11.333" viewBox="0 0 12.739 11.333">
  <path id="Forma_1" data-name="Forma 1" d="M861.572,983.679a1.874,1.874,0,0,1-2.6.474l-4.323-3.031-1.572,1.1a2.271,2.271,0,1,1-.957-.9l1.925-1.349-1.925-1.35a2.28,2.28,0,1,1,.957-.9l1.572,1.1,4.323-3.031a1.874,1.874,0,0,1,2.6.474l-5.285,3.7Zm-10.459-1.5a1.181,1.181,0,1,0,1.179,1.181A1.18,1.18,0,0,0,851.113,982.178Zm0-6.768a1.181,1.181,0,1,0,1.179,1.18A1.18,1.18,0,0,0,851.113,975.409Z" transform="translate(-848.834 -974.308)"/>
</svg>
