<svg xmlns="http://www.w3.org/2000/svg" width="13" height="13" viewBox="0 0 13 13">
  <path id="_0xe9d6" data-name="0xe9d6" d="M13-4.537a6.367,6.367,0,0,1-.871,3.263A6.454,6.454,0,0,1,9.763,1.092,6.367,6.367,0,0,1,6.5,1.963a6.367,6.367,0,0,1-3.263-.871A6.454,6.454,0,0,1,.871-1.274,6.367,6.367,0,0,1,0-4.537,6.367,6.367,0,0,1,.871-7.8a6.454,6.454,0,0,1,2.366-2.366A6.367,6.367,0,0,1,6.5-11.037a6.367,6.367,0,0,1,3.263.871A6.454,6.454,0,0,1,12.129-7.8,6.367,6.367,0,0,1,13-4.537ZM8.593-1.521l.923-.923L7.423-4.537,9.516-6.63l-.923-.923L6.5-5.46,4.407-7.553l-.923.923L5.577-4.537,3.484-2.444l.923.923L6.5-3.614Z" transform="translate(0 11.037)" fill="#c7c7c7"/>
</svg>
