<svg xmlns="http://www.w3.org/2000/svg" width="14.054" height="14.054" viewBox="0 0 14.054 14.054">
  <path id="_0xff07" data-name="0xff07" d="M8.134-4.9l5.628-5.642a.79.79,0,0,0,.224-.56.754.754,0,0,0-.231-.553.754.754,0,0,0-.553-.231.79.79,0,0,0-.56.224L7-6.034,1.358-11.662a.79.79,0,0,0-.56-.224.754.754,0,0,0-.553.231.754.754,0,0,0-.231.553.79.79,0,0,0,.224.56L5.866-4.9.238.742a.79.79,0,0,0-.224.56.754.754,0,0,0,.231.553A.754.754,0,0,0,.8,2.086a.79.79,0,0,0,.56-.224L7-3.766l5.642,5.628A.763.763,0,0,0,13,2.121a.811.811,0,0,0,.448.028.768.768,0,0,0,.6-.6.811.811,0,0,0-.028-.448.763.763,0,0,0-.259-.357Z" transform="translate(-0.014 11.886)"/>
</svg>
